<svg xmlns="http://www.w3.org/2000/svg" viewBox="0 0 40.52 39.68"><defs><style>.cls-1{fill:#01ba7d;}</style></defs><g id="Capa_2" data-name="Capa 2"><g id="Capa_1-2" data-name="Capa 1"><path class="cls-1" d="M7,39.63c.91-.88,1.75-1.63,2.5-2.47a2.19,2.19,0,0,1,1.84-.74c6.78,0,13.55,0,20.32,0a5.14,5.14,0,0,0,5.54-5.38q0-13.62,0-27.24c0-.37,0-.59-.52-.59q-10.34,0-20.69,0H8.57A5,5,0,0,0,3.34,8.39q0,12.52,0,25c0,.17,0,.34,0,.66,1-1.05,2-2,3-2.94.21-.21.14-.46.14-.7q0-10.62,0-21.24c0-.35,0-.7,0-1A1.61,1.61,0,0,1,8.17,6.72,1.58,1.58,0,0,1,9.79,8.18c0,.38,0,.77,0,1.16V27.59a1,1,0,0,0,.55-.37C11.59,26,12.8,24.82,14,23.64a1.21,1.21,0,0,0,.4-1q0-6.92,0-13.83c0-.23,0-.45,0-.68a1.65,1.65,0,0,1,3.3.06c0,.47,0,.94,0,1.41v9.61a1.12,1.12,0,0,0,.11.7L20,17.82c.68-.67,1.35-1.34,2-2a1.07,1.07,0,0,0,.37-.85q0-3.32,0-6.61a1.61,1.61,0,0,1,1.25-1.62,1.71,1.71,0,0,1,1.9.87,1.84,1.84,0,0,1,.15.89v3.7c.85-.82,1.58-1.52,2.31-2.24l2.74-2.68a1.69,1.69,0,0,1,2.44-.11,1.59,1.59,0,0,1-.09,2.39c-1.48,1.47-3,2.92-4.47,4.37a3.11,3.11,0,0,1-.52.34.68.68,0,0,0,.69.24c1.07,0,2.13,0,3.19,0a1.58,1.58,0,0,1,1.68,1.66,1.6,1.6,0,0,1-1.71,1.57c-2.12,0-4.25,0-6.37,0a1.77,1.77,0,0,0-1.43.56c-1.13,1.17-2.32,2.29-3.48,3.43-.14.13-.26.29-.5.54H32A1.62,1.62,0,0,1,33.78,24a1.54,1.54,0,0,1-1.32,1.49,6.35,6.35,0,0,1-.87.05H17.27a.87.87,0,0,0-.69.19l-4.29,4.2c.22.23.46.14.67.14H31.65a2.51,2.51,0,0,1,1,.11,1.6,1.6,0,0,1,1,1.72,1.64,1.64,0,0,1-1.52,1.39c-.56,0-1.12,0-1.68,0h-21a1.33,1.33,0,0,0-1,.43C6.73,35.39,5,37,3.33,38.7a1.87,1.87,0,0,1-2.19.57A1.85,1.85,0,0,1,0,37.35Q0,22.79,0,8.21A8.33,8.33,0,0,1,8.36,0q14.3,0,28.57,0a3.38,3.38,0,0,1,3.58,3.5q0,14,0,28a8.29,8.29,0,0,1-8.25,8.18c-8.27,0-16.54,0-24.82,0Z"/></g></g></svg>